<svg width="30" height="30" viewBox="0 0 30 30" fill="none" xmlns="http://www.w3.org/2000/svg">
<path id="Play" fill-rule="evenodd" clip-rule="evenodd" d="M0 15.0087C0 6.72938 6.73263 0 15 0C23.2674 0 30 6.72938 30 15.0087C30 23.2706 23.2674 30 15 30C6.73263 30 0 23.2706 0 15.0087ZM20.502 16.5268C20.6612 16.3676 20.8639 16.1216 20.9074 16.0637C21.139 15.7598 21.2548 15.3835 21.2548 15.0087C21.2548 14.5876 21.1245 14.1968 20.8784 13.8784C20.8582 13.8583 20.8187 13.8153 20.7673 13.7593C20.6709 13.6544 20.5327 13.504 20.4006 13.3719C19.2133 12.0984 16.1149 10.0145 14.4933 9.37772C14.2471 9.27787 13.6245 9.05935 13.2915 9.04487C12.973 9.04487 12.6689 9.11723 12.3794 9.26195C12.0174 9.46455 11.7278 9.78293 11.5686 10.1592C11.4672 10.4197 11.3079 11.2012 11.3079 11.2156C11.1487 12.0695 11.0618 13.4588 11.0618 14.9928C11.0618 16.4559 11.1487 17.7858 11.279 18.6541C11.2826 18.6577 11.295 18.7198 11.3144 18.8163C11.3732 19.1096 11.4957 19.7206 11.6265 19.9711C11.945 20.5789 12.5676 20.9551 13.2336 20.9551H13.2915C13.7259 20.9407 14.6381 20.5644 14.6381 20.5499C16.1728 19.9132 19.1989 17.9305 20.4151 16.6136L20.502 16.5268Z" fill="url(#paint0_linear_65_3644)"/>
<defs>
<linearGradient id="paint0_linear_65_3644" x1="-1.67638e-07" y1="15" x2="30" y2="15" gradientUnits="userSpaceOnUse">
<stop stop-color="#4192DD"/>
<stop offset="1" stop-color="#B45DE6"/>
</linearGradient>
</defs>
</svg>
