<svg width="20" height="20" viewBox="0 0 20 20" fill="none" xmlns="http://www.w3.org/2000/svg">
<path d="M11.1667 14.5166H9.07501C7.70834 14.5166 6.60001 13.3666 6.60001 11.9499C6.60001 11.6083 6.88334 11.3249 7.22501 11.3249C7.56667 11.3249 7.85001 11.6083 7.85001 11.9499C7.85001 12.6749 8.40001 13.2666 9.07501 13.2666H11.1667C11.7083 13.2666 12.1583 12.7833 12.1583 12.1999C12.1583 11.4749 11.9 11.3333 11.475 11.1833L8.11667 9.99994C7.46667 9.77494 6.59167 9.29161 6.59167 7.79994C6.59167 6.51661 7.60001 5.48328 8.83334 5.48328H10.925C12.2917 5.48328 13.4 6.63328 13.4 8.04994C13.4 8.39161 13.1167 8.67494 12.775 8.67494C12.4333 8.67494 12.15 8.39161 12.15 8.04994C12.15 7.32494 11.6 6.73328 10.925 6.73328H8.83334C8.29168 6.73328 7.84167 7.21661 7.84167 7.79994C7.84167 8.52494 8.10001 8.66661 8.52501 8.81661L11.8833 9.99994C12.5333 10.2249 13.4083 10.7083 13.4083 12.1999C13.4 13.4749 12.4 14.5166 11.1667 14.5166Z" fill="white"/>
<path d="M10 15.625C9.65833 15.625 9.375 15.3417 9.375 15V5C9.375 4.65833 9.65833 4.375 10 4.375C10.3417 4.375 10.625 4.65833 10.625 5V15C10.625 15.3417 10.3417 15.625 10 15.625Z" fill="white"/>
<path d="M12.5 18.9583H7.49996C2.97496 18.9583 1.04163 17.025 1.04163 12.5V7.49996C1.04163 2.97496 2.97496 1.04163 7.49996 1.04163H12.5C17.025 1.04163 18.9583 2.97496 18.9583 7.49996V12.5C18.9583 17.025 17.025 18.9583 12.5 18.9583ZM7.49996 2.29163C3.65829 2.29163 2.29163 3.65829 2.29163 7.49996V12.5C2.29163 16.3416 3.65829 17.7083 7.49996 17.7083H12.5C16.3416 17.7083 17.7083 16.3416 17.7083 12.5V7.49996C17.7083 3.65829 16.3416 2.29163 12.5 2.29163H7.49996Z" fill="white"/>
</svg>
