<svg width="20" height="20" viewBox="0 0 20 20" fill="none" xmlns="http://www.w3.org/2000/svg">
<path d="M14.1666 17.2917H5.83329C2.15829 17.2917 1.04163 16.175 1.04163 12.5V12.0834C1.04163 11.7417 1.32496 11.4584 1.66663 11.4584C2.46663 11.4584 3.12496 10.8 3.12496 10C3.12496 9.20004 2.46663 8.54171 1.66663 8.54171C1.32496 8.54171 1.04163 8.25837 1.04163 7.91671V7.50004C1.04163 3.82504 2.15829 2.70837 5.83329 2.70837H14.1666C17.8416 2.70837 18.9583 3.82504 18.9583 7.50004V8.33337C18.9583 8.67504 18.675 8.95837 18.3333 8.95837C17.5333 8.95837 16.875 9.61671 16.875 10.4167C16.875 11.2167 17.5333 11.875 18.3333 11.875C18.675 11.875 18.9583 12.1584 18.9583 12.5C18.9583 16.175 17.8416 17.2917 14.1666 17.2917ZM2.29163 12.6334C2.30829 15.5 2.89996 16.0417 5.83329 16.0417H14.1666C16.95 16.0417 17.625 15.55 17.7 13.05C16.5083 12.7667 15.625 11.6917 15.625 10.4167C15.625 9.14171 16.5166 8.06671 17.7083 7.78337V7.50004C17.7083 4.52504 17.15 3.95837 14.1666 3.95837H5.83329C2.89996 3.95837 2.30829 4.50004 2.29163 7.36671C3.48329 7.65004 4.37496 8.72504 4.37496 10C4.37496 11.275 3.48329 12.35 2.29163 12.6334Z" fill="white"/>
<path d="M8.33337 6.04171C7.99171 6.04171 7.70837 5.75837 7.70837 5.41671V3.33337C7.70837 2.99171 7.99171 2.70837 8.33337 2.70837C8.67504 2.70837 8.95837 2.99171 8.95837 3.33337V5.41671C8.95837 5.75837 8.67504 6.04171 8.33337 6.04171Z" fill="white"/>
<path d="M8.33337 12.15C7.99171 12.15 7.70837 11.8667 7.70837 11.525V8.46667C7.70837 8.12501 7.99171 7.84167 8.33337 7.84167C8.67504 7.84167 8.95837 8.12501 8.95837 8.46667V11.525C8.95837 11.875 8.67504 12.15 8.33337 12.15Z" fill="white"/>
<path d="M8.33337 17.2917C7.99171 17.2917 7.70837 17.0084 7.70837 16.6667V14.5834C7.70837 14.2417 7.99171 13.9584 8.33337 13.9584C8.67504 13.9584 8.95837 14.2417 8.95837 14.5834V16.6667C8.95837 17.0084 8.67504 17.2917 8.33337 17.2917Z" fill="white"/>
</svg>
